<?xml version="1.0" encoding="utf-8"?>
<!-- Generator: Adobe Illustrator 27.3.1, SVG Export Plug-In . SVG Version: 6.00 Build 0)  -->
<svg version="1.1" id="Layer_1" xmlns="http://www.w3.org/2000/svg" xmlns:xlink="http://www.w3.org/1999/xlink" x="0px" y="0px"
	 viewBox="0 0 1020 1020" style="enable-background:new 0 0 1020 1020;" xml:space="preserve">
<style type="text/css">
	.st0{fill:#DDDDDD;}
</style>
<g>
	<path class="st0" d="M591.43,254.63c-4.26,8.14,4.42,11.67,8.97,16.4c28.45,29.58,57.29,58.78,85.96,88.16
		c23.68,24.27,47.32,48.57,70.9,72.93c2.56,2.64,4.6,3.83,8.5,2.07c6.35-2.87,12.75,0.9,14.59,7.8c1.55,5.82-2.25,11.78-8.6,12.78
		c-3.23,0.51-4.3,2.1-5.05,5.07c-8.81,34.75-17.71,69.48-26.7,104.19c-10.32,39.84-20.77,79.65-31.15,119.47
		c-0.46,1.76-0.76,3.56-1.14,5.34c-0.56,2.58-0.16,4.48,2.17,6.43c5.86,4.91,5.42,12.82-0.59,17.41
		c-4.34,3.31-12.36,2.64-15.09-2.16c-2.05-3.61-4.3-2.9-6.98-2.22c-27.07,6.83-54.12,13.76-81.19,20.57
		c-24.97,6.28-49.99,12.36-74.93,18.72c-24.04,6.13-48.01,12.55-72.05,18.71c-2.94,0.75-4.43,1.68-4.75,5.11
		c-0.53,5.69-6.01,9.9-11.06,9.35c-7.13-0.78-11.93-4.97-10.33-11.22c1.73-6.74-2.14-9.75-5.72-13.27
		c-38.87-38.2-77.82-76.31-116.72-114.47c-16.26-15.95-32.46-31.95-48.63-47.98c-1.87-1.85-3.33-2.79-6.38-1.95
		c-4.36,1.19-9.14,0.88-12.22-3.34c-2.6-3.56-3.47-7.93-1.06-11.61c1.73-2.64,4.86-5.5,7.73-5.95c3.69-0.59,4.57-2.28,5.37-5.16
		c5.88-21.19,11.83-42.35,17.75-63.53c8.86-31.66,17.72-63.31,26.56-94.97c6.49-23.25,12.96-46.5,19.43-69.76
		c0.63-2.25,0.96-3.96-1.6-5.92c-4.76-3.65-4.88-12.03-0.9-16.17c4.34-4.52,11.05-4.28,16.16,0.02c1.59,1.33,4.52,2.37,6.38,1.87
		c19.93-5.32,39.76-11.02,59.64-16.54c17.97-4.98,35.99-9.81,53.96-14.81c14.82-4.12,29.57-8.47,44.38-12.59
		c22.91-6.38,45.87-12.59,68.74-19.1c1.76-0.5,3.71-2.5,4.37-4.26c1.85-4.89,6.92-8.66,11.92-7.79
		C589.19,243.49,592.53,248.1,591.43,254.63z M454.38,763.46c9.03-2.23,17.85-4.33,26.63-6.59c20.8-5.35,41.56-10.84,62.37-16.14
		c27.74-7.07,55.52-13.98,83.27-21.01c19.88-5.04,39.73-10.17,59.6-15.23c3.2-0.82,5.9-1.6,6.98-5.64c0.57-2.13,3.33-4.74,5.48-5.14
		c3.69-0.68,4.47-2.98,5.19-5.69c4.23-15.99,8.45-31.99,12.57-48.01c10.37-40.31,20.65-80.64,31.04-120.95
		c5.2-20.18,10.66-40.3,15.75-60.51c0.47-1.85-0.83-4.17-1.4-6.25c-0.96-3.51-1.96-7-3-10.49c-0.4-1.33-0.63-2.91-1.5-3.85
		c-7.21-7.79-14.46-15.55-21.87-23.15c-17.91-18.39-35.92-36.67-53.86-55.03c-30.33-31.05-60.64-62.12-90.89-93.24
		c-2.43-2.5-5.04-3.62-8.43-3.02c-3.86,0.69-7.59-0.13-9.77-3.27c-2.21-3.19-4.45-2.52-7.29-1.73c-17.5,4.88-35.04,9.64-52.54,14.53
		c-28.5,7.97-56.98,16.05-85.49,23.99c-29.11,8.11-58.26,16.06-87.32,24.33c-1.89,0.54-3.15,3.23-4.73,4.9
		c-2.24,2.37-4.11,5.52-6.85,6.86c-2.88,1.41-4.79,2.53-5.72,5.89c-5.41,19.57-11.19,39.04-16.65,58.59
		c-8.17,29.26-16.15,58.57-24.26,87.84c-7.42,26.77-14.9,53.53-22.43,80.27c-0.92,3.28-1.37,5.98,1.05,9.17
		c1.68,2.22,2.61,5.96,2.08,8.67c-0.65,3.34,0.1,5.2,2.33,7.39c16.04,15.69,31.97,31.49,47.95,47.25
		c19.16,18.9,38.33,37.79,57.48,56.69c11.27,11.12,22.49,22.3,33.79,33.4c9.95,9.78,19.95,19.52,29.99,29.21
		c1.02,0.98,2.8,2.46,3.62,2.14c5.94-2.32,10.66-0.24,15.15,3.42C453.14,763.44,453.94,763.37,454.38,763.46z"/>
	<path class="st0" d="M290.93,642.91c5.78-0.63,8.46,1.47,9.19,5.68c0.61,3.55-2.24,6.46-6.2,6.86c-4.74,0.47-5.69-1.33-7.42-6.52
		c-1.19-3.57-4.45-6.69-7.37-9.38c-9.13-8.41-18.54-16.52-27.83-24.75c-8.19-7.25-16.35-14.54-24.58-21.74
		c-1.97-1.72-3.22-2.96-2.15-6.2c8-24.36,15.72-48.82,23.34-73.31c0.65-2.09,0.2-4.66-0.24-6.91c-0.78-3.91,0.06-7.07,3.76-8.79
		c3.68-1.72,7.16,0.11,8.69,4.19c1.58,4.21-0.79,6.25-4.11,8.21c-1.76,1.04-3.57,2.94-4.19,4.83
		c-7.68,23.43-15.19,46.92-22.57,70.45c-0.43,1.37,0.01,3.82,0.99,4.72c18.91,17.2,37.93,34.27,57.03,51.26
		C288.47,642.57,290.46,642.74,290.93,642.91z M293.69,645.08c-1.61,1.73-3.61,3.2-3.38,3.76c0.63,1.54,2.2,2.69,3.4,4
		c1.04-1.24,2.63-2.37,2.92-3.77C296.82,648.18,295.1,646.89,293.69,645.08z M253.84,509.02c1.75-2.34,3.39-3.61,3.5-5
		c0.08-0.99-2.04-3.12-2.93-2.99c-1.38,0.19-3.33,1.73-3.58,2.98C250.61,505.15,252.33,506.67,253.84,509.02z"/>
	<path class="st0" d="M730,369.39c3.83-0.61,6.74,1.4,6.53,5.21c-0.22,4.04,2.03,5.98,4.32,8.23c16.91,16.6,33.74,33.28,50.85,49.67
		c4.11,3.94,5.22,7.15,2.96,12.85c-8.97,22.58-17.29,45.42-25.69,68.22c-0.67,1.83-0.61,4.28-0.01,6.16
		c1.39,4.33-0.21,7.29-3.79,9.14c-3.33,1.72-7.58-0.45-8.79-4.31c-1.37-4.36,1.02-6.63,4.79-8.44c1.81-0.87,3.67-2.76,4.38-4.62
		c8.35-21.97,16.34-44.07,24.78-66c1.84-4.79,1.08-7.75-2.56-11.26c-17.05-16.48-33.76-33.32-50.81-49.8
		c-1.76-1.7-4.91-2.37-7.51-2.69c-4.12-0.51-6.11-2.86-6.02-6.53C723.52,371.58,725.46,368.95,730,369.39z M729.46,369.66
		c-1.41,2.94-2.81,4.5-2.58,5.77c0.24,1.34,2.02,2.41,3.13,3.6c1.13-1.2,3.2-2.43,3.16-3.58
		C733.11,373.94,731.39,372.49,729.46,369.66z M767.33,522.76c-2.15-1.64-3.4-3.32-4.7-3.36c-1.05-0.03-2.16,1.92-3.25,2.99
		c1.13,1.14,2.1,2.85,3.45,3.23C763.73,525.86,765.16,524.21,767.33,522.76z"/>
	<path class="st0" d="M528.71,761.52c0.05,7.01-4.11,9.61-9.21,8.29c-2.43-0.63-5.4-0.74-7.73,0.06
		c-23.95,8.25-47.8,16.78-71.75,25.03c-1.53,0.53-4.33-0.1-5.43-1.25c-17.44-18.25-34.64-36.72-52.07-54.98
		c-1.67-1.75-4.37-2.68-6.75-3.58c-3.76-1.43-7.06-3.52-5.62-7.86c0.76-2.28,3.46-4.81,5.79-5.47c3.76-1.06,6.77,1.83,6.48,6.05
		c-0.3,4.36,1.72,7.21,4.41,10.03c15.9,16.66,31.85,33.26,47.61,50.05c2.82,3.01,5.23,3.46,9.07,2.06
		c21.16-7.73,42.41-15.23,63.69-22.63c4.34-1.51,8.8-2.04,10.34-7.69c0.36-1.32,4.65-2.64,6.69-2.14
		C526.34,757.99,527.9,760.72,528.71,761.52z M522.08,768.51c1.92-2.27,3.85-3.57,3.97-5.02c0.09-1.08-2.16-3.25-3.4-3.27
		c-1.21-0.02-3.19,1.91-3.47,3.26C518.96,764.65,520.66,766.2,522.08,768.51z M376.14,732.77c1.69-2.06,3.57-3.37,3.52-4.61
		c-0.04-1.09-2.15-2.73-3.52-2.92c-0.94-0.13-3.09,1.81-3.06,2.78C373.12,729.37,374.69,730.68,376.14,732.77z"/>
	<path class="st0" d="M393.39,293c-1.27-0.32-3.08-0.21-3.7-1.02c-3.03-3.97-6.5-1.76-9.82-1c-22.05,5.09-44.08,10.3-66.14,15.34
		c-4.02,0.92-6.64,2.32-7.47,7.02c-3.64,20.59-7.69,41.11-11.61,61.65c-0.52,2.75-1.54,5.47-1.61,8.23
		c-0.06,2.6,0.29,5.48,1.41,7.77c2.02,4.12,1.78,8.02-1.77,10.06c-3.26,1.87-6.47,1.49-8.83-1.68c-2.61-3.5-1.42-6.57,1.81-9.98
		c2.15-2.26,3.54-5.72,4.17-8.86c3.62-17.91,6.94-35.88,10.32-53.84c1.19-6.33,2.11-12.73,3.54-19c0.32-1.38,2.11-3.12,3.52-3.46
		c24.87-5.98,49.81-11.7,74.67-17.73c2.43-0.59,4.29-3.31,6.72-4.22c2.56-0.96,6.01-1.99,8.11-0.99c1.71,0.82,2.8,4.63,2.71,7.06
		C399.31,291.41,396.93,293.31,393.39,293z M393.18,291.89c1.77-2.46,3.54-3.86,3.48-5.17c-0.06-1.21-2.09-2.32-3.26-3.47
		c-1.07,1.16-2.88,2.25-3.01,3.51C390.26,288.03,391.78,289.48,393.18,291.89z M289.22,399.84c1.54-2.04,3.24-3.33,3.08-4.31
		c-0.22-1.31-1.89-2.38-2.94-3.55c-1.2,1.1-3.15,2.07-3.38,3.35C285.79,396.37,287.65,397.78,289.22,399.84z"/>
	<path class="st0" d="M642.36,289.69c-0.36-0.71-0.89-2.64-2.09-3.99c-7.04-7.94-14.17-15.8-21.4-23.57
		c-9.58-10.3-19.31-20.44-28.87-30.75c-2.05-2.21-3.74-2.91-6.88-1.83c-22.99,7.96-46.07,15.64-69.12,23.43
		c-2.82,0.95-4.98,2.1-6.21,5.55c-1.06,2.99-4.24,4.95-8.23,2.93c-4.02-2.03-4.49-5.46-3.23-8.85c1.36-3.65,4.7-4.07,8.39-3.29
		c2.36,0.5,5.11,0.94,7.3,0.23c24.5-8.06,48.91-16.4,73.42-24.46c1.54-0.51,4.3,0.12,5.39,1.26c12.34,13.01,24.45,26.23,36.63,39.39
		c5.42,5.85,10.75,11.79,16.35,17.46c1.39,1.41,3.63,2.54,5.58,2.73c4.82,0.46,5.56,3.32,5.31,7.26c-0.29,4.49-3.14,5.3-6.91,5.21
		c-4.33-0.1-5.83-2.52-5.77-6.44C642.03,291.64,642.12,291.31,642.36,289.69z M652.95,292.18c-2.06-1.67-3.71-3.82-4.6-3.54
		c-1.49,0.47-3.03,2.34-3.46,3.92c-0.2,0.72,2.16,3.01,3.39,3.03C649.58,295.6,650.91,293.77,652.95,292.18z M502.67,260.29
		c1.41-2.08,3.17-3.56,2.97-4.7c-0.21-1.24-2.31-3.09-3.46-3c-1.28,0.1-3.34,2.06-3.36,3.23
		C498.81,257.04,500.84,258.29,502.67,260.29z"/>
	<path class="st0" d="M746.96,632.8c-1.33,2.69-2.1,4.43-3.04,6.08c-1.57,2.76-4.07,5.28-4.74,8.22
		c-5.53,24.16-10.73,48.4-16.02,72.62c-0.66,3.01-2,4.7-5.48,5.36c-22.09,4.17-44.11,8.67-66.16,13.04
		c-2.74,0.54-5.6,0.68-8.24,1.52c-2.07,0.66-4.28,1.75-5.75,3.29c-3.06,3.22-7.11,4.16-10.02,1.37c-2.76-2.64-2.89-5.91-0.78-9.05
		c2.05-3.04,6.29-3.12,9.79-1.03c1.89,1.13,4.58,2.05,6.63,1.65c23.8-4.64,47.52-9.62,71.31-14.28c3.17-0.62,4.53-2.15,5.17-4.98
		c5.59-24.5,11.25-48.99,16.68-73.53c0.33-1.5-1.45-3.35-1.68-5.12c-0.34-2.61-1.17-5.98,0.05-7.73c1.23-1.76,4.87-2.88,7.19-2.52
		C743.74,628,745.19,630.91,746.96,632.8z M744.92,634.32c-2.21-1.79-3.61-3.78-4.77-3.65c-1.54,0.18-2.89,2.01-4.32,3.13
		c1.26,1.12,2.42,2.94,3.82,3.17C740.93,637.17,742.48,635.64,744.92,634.32z M631.55,734.64c-1.4,2.18-2.99,3.62-2.72,4.46
		c0.46,1.43,2.09,2.49,3.22,3.71c1.15-1.26,2.99-2.4,3.21-3.8C635.41,738.01,633.37,736.68,631.55,734.64z"/>
	<path class="st0" d="M305.23,594.53c3.61-1.54,7.08-3.01,11.07-4.71c0.8,1.53,1.64,2.89,2.26,4.34
		c9.84,23.33,23.37,44.45,40.77,62.67c21.85,22.89,47.67,40.33,77.42,51.73c26.35,10.1,53.62,14.96,81.74,13.96
		c36.63-1.3,70.82-11.34,102.32-30.38c29.18-17.64,52.49-41.11,70.47-69.98c1.67-2.68,3.28-5.41,4.74-8.2
		c1.32-2.53,2.84-3.53,5.51-1.72c1.22,0.83,2.63,1.45,4.03,1.94c3.45,1.21,3.88,3.28,1.9,6.11c-8.36,11.96-16.2,24.33-25.2,35.79
		c-16.93,21.57-38.23,38.17-62.09,51.48c-19.33,10.79-39.92,18.17-61.56,23.08c-21.01,4.76-42.27,5.6-63.48,4.22
		c-22.01-1.43-43.42-6.58-64.11-14.7c-18.19-7.14-35.13-16.41-50.9-27.81c-16.37-11.84-30.52-26.08-43.18-41.78
		c-12.44-15.43-21.93-32.66-30.08-50.65c-0.41-0.9-0.77-1.83-1.07-2.77C305.56,596.37,305.45,595.58,305.23,594.53z"/>
	<path class="st0" d="M656.54,359.15c2.21-2.51,4.02-4.68,5.97-6.71c0.78-0.81,1.86-1.32,2.95-2.07
		c11.86,10.59,21.94,22.72,30.88,35.77c17.34,25.33,28.5,53.24,34.79,83.27c4.35,20.76,4.06,41.73,3.18,62.61
		c-0.83,19.59-6.06,38.55-12.59,57.05c-0.69,1.95-2.67,5.13-3.65,4.99c-3.3-0.49-6.51-2.05-9.53-3.63c-0.49-0.26-0.09-2.7,0.26-4.04
		c3.38-12.77,7.47-25.39,10.13-38.3c3.74-18.14,3.85-36.52,2.32-55.05c-1.31-15.82-4.59-31.1-9.32-46.12
		c-6.42-20.39-15.87-39.36-28.71-56.43c-7.46-9.92-16.08-18.96-24.17-28.4C658.29,361.23,657.56,360.35,656.54,359.15z"/>
	<path class="st0" d="M396.35,320.86c9.02-4.58,17.39-9.24,26.08-13.17c19.15-8.64,39.27-14.8,60.08-16.74
		c17.78-1.67,35.92-1.65,53.74-0.27c37.99,2.94,72.27,16.98,103.59,38.4c8.86,6.05,8.67,7.84-0.88,15.51
		c-27.55-21.08-58.78-34.35-92.9-40.12c-22.52-3.81-45.23-3.58-67.97,0.33c-25.11,4.33-48.61,12.63-70.67,25.2
		c-2.86,1.63-4.76,1.72-6.27-1.71C400.17,326.06,398.5,324.13,396.35,320.86z"/>
	<path class="st0" d="M309.07,569.11c-3.7,0.99-7.32,1.96-10.91,2.92c-24.4-71.93-1.11-178.7,79.46-237.46
		c2.07,2.56,4.41,4.97,6.07,7.79c0.55,0.94-0.14,3.56-1.11,4.3c-12.46,9.56-23.36,20.68-33.29,32.77
		c-13.65,16.63-24.82,34.84-32.14,55.08c-4.76,13.15-9.17,26.62-11.73,40.32c-2.42,12.95-2.67,26.38-3.04,39.62
		c-0.48,17.3,1.73,34.37,6.64,51.04C309.34,566.54,309.07,567.77,309.07,569.11z"/>
	<path class="st0" d="M398.46,327.21c-2.95,6.79-5.37,12.34-8.27,18.99c-4.46-6-8.09-10.88-12.56-16.89
		C385.01,328.56,391.19,327.94,398.46,327.21z"/>
	<path class="st0" d="M722.17,600.56c-5.94,4.7-10.72,8.5-16.43,13.02c-1.05-7.4-1.91-13.46-2.96-20.8
		C709.51,595.49,715.28,597.8,722.17,600.56z"/>
	<path class="st0" d="M638.75,350.22c4.82-5.52,8.73-10,13.39-15.34c2.49,6.5,4.63,12.06,7.38,19.21
		C652.31,352.74,646.11,351.59,638.75,350.22z"/>
	<path class="st0" d="M300.78,593.25c1.23-7.52,2.21-13.49,3.35-20.44c5.37,4.22,10.3,8.09,16.15,12.68
		C313.61,588.15,307.89,590.42,300.78,593.25z"/>
</g>
</svg>
